<svg id="Layer_1" data-name="Layer 1" xmlns="http://www.w3.org/2000/svg" viewBox="0 0 50 50"><defs><style>.cls-1{fill:#fff;}</style></defs><title>search</title><path class="cls-1" d="M38.78,20.53A18.25,18.25,0,1,0,20.53,38.78a18.06,18.06,0,0,0,11.23-3.86l1.77-1.39,1.39-1.77A18.06,18.06,0,0,0,38.78,20.53ZM20.53,34.18A13.65,13.65,0,1,1,34.18,20.53,13.67,13.67,0,0,1,20.53,34.18Zm27.13,9.69L38.2,34.31a.88.88,0,0,0-.55-.31H34v3.65a.88.88,0,0,0,.32.55l9.51,9.52a.94.94,0,0,0,.6.28h0a.81.81,0,0,0,.54-.28L47.65,45A.82.82,0,0,0,47.66,43.87Z"/></svg>